HIERARCHY
ROOT hip
{
	OFFSET 0.000000 0.000000 0.000000 
	CHANNELS 6 Xposition Yposition Zposition Xrotation Zrotation Yrotation
	JOINT abdomen
	{
		OFFSET 0.000000 3.402643 0.000000 
		CHANNELS 3 Xrotation Zrotation Yrotation
		JOINT chest
		{
			OFFSET 0.000000 8.438565 -0.680529 
			CHANNELS 3 Xrotation Zrotation Yrotation
			JOINT neck
			{
				OFFSET 0.000000 10.207942 -0.272212 
				CHANNELS 3 Xrotation Zrotation Yrotation
				JOINT head
				{
					OFFSET 0.000000 3.130431 0.000000 
					CHANNELS 3 Xrotation Zrotation Yrotation
					End Site
					{
						OFFSET 0.000000 3.130435 0.000000 
					}
				}
			}
			JOINT lCollar
			{
				OFFSET 3.470700 6.669187 -0.816635 
				CHANNELS 3 Yrotation Zrotation Xrotation
				JOINT lShldr
				{
					OFFSET 3.198488 0.000000 0.000000 
					CHANNELS 3 Zrotation Yrotation Xrotation
					JOINT lForeArm
					{
						OFFSET 10.139888 0.000000 0.000000 
						CHANNELS 3 Yrotation Zrotation Xrotation
						JOINT lHand
						{
							OFFSET 8.370511 0.000000 0.000000 
							CHANNELS 3 Zrotation Yrotation Xrotation
							End Site
							{
								OFFSET 4.083176 0.000000 0.000000 
							}
						}
					}
				}
			}
			JOINT rCollar
			{
				OFFSET -3.470700 6.669187 -0.816635 
				CHANNELS 3 Yrotation Zrotation Xrotation
				JOINT rShldr
				{
					OFFSET -3.198488 0.000000 0.000000 
					CHANNELS 3 Zrotation Yrotation Xrotation
					JOINT rForeArm
					{
						OFFSET -10.139888 0.000000 0.000000 
						CHANNELS 3 Yrotation Zrotation Xrotation
						JOINT rHand
						{
							OFFSET -8.370511 0.000000 0.000000 
							CHANNELS 3 Zrotation Yrotation Xrotation
							End Site
							{
								OFFSET -4.083176 0.000000 0.000000 
							}
						}
					}
				}
			}
		}
	}
	JOINT lThigh
	{
		OFFSET 5.308129 -1.633274 1.361059 
		CHANNELS 3 Xrotation Zrotation Yrotation
		JOINT lShin
		{
			OFFSET -2.041588 -20.007561 0.000000 
			CHANNELS 3 Xrotation Zrotation Yrotation
			JOINT lFoot
			{
				OFFSET 0.000000 -19.190928 -1.224953 
				CHANNELS 3 Xrotation Yrotation Zrotation
				End Site
				{
					OFFSET 0.000000 -2.449906 4.627600 
				}
			}
		}
	}
	JOINT rThigh
	{
		OFFSET -5.308129 -1.633274 1.361059 
		CHANNELS 3 Xrotation Zrotation Yrotation
		JOINT rShin
		{
			OFFSET 2.041588 -20.007561 0.000000 
			CHANNELS 3 Xrotation Zrotation Yrotation
			JOINT rFoot
			{
				OFFSET 0.000000 -19.190928 -1.224953 
				CHANNELS 3 Xrotation Yrotation Zrotation
				End Site
				{
					OFFSET 0.000000 -2.449906 4.627600 
				}
			}
		}
	}
}
MOTION
Frames: 13
Frame Time: 0.033333
15.167630 45.457321 -14.403351 -3.677118 -5.174930 -82.305069 0.000000 0.000000 0.000000 15.851780 4.538188 -0.860791 13.580144 0.056277 29.544218 -8.929340 1.136074 26.115789 -11.825070 -2.144198 15.261945 -96.609848 -71.529877 90.798401 -67.801788 -7.290841 26.465820 -8.228430 4.471709 -3.586770 9.133789 19.305496 12.980635 48.889957 -18.082663 -25.689434 91.652657 4.908374 -55.753326 -36.358730 -17.852674 1.077973 -5.526853 18.112745 7.463630 -1.160510 1.743618 7.820520 19.287081 -1.432770 -8.491458 -13.043712 -18.040649 -9.352678 36.009499 0.896879 -11.281439 -12.282870 -1.366223 12.684266 
15.017125 45.462223 -14.339042 -4.013269 -5.591811 -82.919769 0.000000 0.000000 0.000000 15.783647 4.558515 -1.173403 14.020488 -0.082655 29.542311 -9.476680 1.188297 26.409052 -11.847039 -2.112531 15.203108 -98.921295 -72.669563 93.789276 -69.157852 -5.750286 31.593534 -6.980662 3.430523 -3.498943 8.489459 18.611038 13.075307 49.984882 -19.433264 -27.260244 95.751183 5.429212 -55.737633 -41.169106 -15.947291 1.049083 -4.130105 17.913420 7.863453 -1.582671 1.483315 6.419765 17.671932 -1.465143 -9.487947 -12.634451 -18.373812 -9.406235 36.199657 0.839627 -10.169805 -12.691760 -1.406746 12.502338 
14.885997 45.443729 -14.184634 -4.358169 -5.784122 -83.622719 0.000000 0.000000 0.000000 15.507753 4.489324 -1.431592 14.487714 -0.156214 29.575439 -9.672093 1.196241 26.753508 -11.842764 -2.315157 14.955454 -99.438622 -73.687576 95.447289 -71.032639 -4.118239 34.767609 -4.623866 3.164729 -3.479114 7.991037 18.145260 12.960704 50.482681 -20.454718 -28.775211 99.107521 5.987169 -56.127480 -40.803543 -12.200762 -0.318305 -3.320291 17.674475 8.195137 -1.564106 1.269215 7.198286 17.095751 -1.489610 -9.971915 -12.604283 -18.733574 -9.147373 36.362583 0.448259 -9.533575 -12.853174 -1.431755 12.722989 
14.729953 45.450394 -13.945407 -4.829635 -5.819252 -83.552689 0.000000 0.000000 0.000000 15.038668 4.546507 -2.002568 14.912377 -0.070514 29.072044 -9.688146 0.472882 27.255804 -12.338332 -2.084629 14.590234 80.190193 -105.263977 -83.187485 -72.986320 -2.518497 37.077919 -1.307718 4.007306 -3.511757 7.078226 17.580032 12.713065 50.760307 -20.635117 -30.142635 100.872139 6.487677 -56.599358 -34.463673 -9.664999 -1.659650 -3.037321 17.164843 8.196039 -1.539967 1.023649 8.006742 16.897846 -1.433219 -9.760983 -12.265060 -19.490200 -9.308720 36.289349 0.242337 -9.172419 -12.945354 -1.501179 13.115712 
14.594420 45.479839 -13.684533 -5.058651 -6.167477 -83.585991 0.000000 0.000000 0.000000 14.895001 4.700613 -2.471404 15.437611 0.209966 28.703009 -9.414627 -0.445763 27.840298 -12.353138 -1.709919 14.531810 79.324371 -104.010468 -81.505981 -74.570305 -1.127810 39.903099 2.115797 3.684926 -3.492558 6.224844 17.546114 12.699186 50.792152 -21.039343 -31.550673 103.886398 6.987522 -55.610943 -35.597187 -6.937582 -2.410851 -2.529375 16.870474 8.492170 -1.492552 0.702905 8.513089 16.777756 -1.382488 -9.359764 -11.512433 -19.879616 -9.434848 35.930958 0.003010 -8.804971 -12.892158 -1.535578 13.488351 
14.479779 45.518097 -13.390438 -5.366058 -6.446474 -83.693184 0.000000 0.000000 0.000000 14.810174 4.853583 -2.721999 15.807159 0.095719 28.688349 -9.297039 -0.241615 27.900312 -12.463298 -1.486897 14.514676 80.004791 -102.652306 -81.543030 -76.251686 0.270996 42.141708 5.442104 3.279978 -3.492985 5.410473 17.371130 12.766761 50.816776 -20.867889 -33.704105 106.667076 7.676852 -55.522907 -35.654282 -4.884286 -3.055912 -2.138669 16.450491 8.634445 -1.333313 0.446960 9.101248 16.674824 -1.322842 -9.074423 -10.849404 -20.311041 -9.437448 35.420746 -0.304202 -8.364804 -12.751186 -1.551105 13.868176 
14.398482 45.563526 -13.093199 -5.604431 -6.667485 -83.967384 0.000000 0.000000 0.000000 14.743718 4.949550 -2.624892 16.181742 0.276795 28.764450 -8.937004 -0.726306 28.129936 -12.917824 -0.211542 14.575604 79.487938 -101.797508 -82.016228 -77.602180 1.451605 44.623989 8.120530 3.007809 -3.517084 4.970149 17.295218 12.797948 51.137737 -20.735159 -36.459599 109.477203 8.542571 -56.175121 -36.341896 -2.423463 -3.790891 -1.875209 16.022848 8.560778 -0.797435 0.360684 9.758740 16.217854 -1.320470 -9.329931 -10.339512 -20.627119 -9.310157 34.841064 -0.664440 -8.232409 -12.416266 -1.567886 14.304902 
14.330025 45.622425 -12.774565 -5.642753 -6.579573 -84.430405 0.000000 0.000000 0.000000 14.651873 5.216308 -2.387773 15.911107 0.370515 29.089540 -8.175949 -0.897591 28.200293 -12.584908 0.489972 14.552068 77.041145 -100.280350 -79.733017 -78.626099 2.435977 46.483788 9.831525 2.938978 -3.525510 4.947265 17.143549 12.722324 51.670273 -20.441174 -38.786709 111.763229 9.283644 -54.552784 -33.772850 1.407972 -4.894771 -1.933714 15.766162 8.444180 0.014312 0.328813 10.560715 15.487952 -1.339619 -9.949620 -10.126630 -20.798750 -9.115498 33.986725 -0.928691 -8.076747 -11.902572 -1.541139 14.690923 
14.281825 45.678291 -12.424723 -5.795187 -6.150290 -85.100121 0.000000 0.000000 0.000000 14.222505 5.311568 -2.210052 15.727090 0.177696 29.581825 -8.037827 -0.523971 28.232780 -12.305619 0.779505 14.180164 78.127609 -99.221146 -80.742226 -79.563736 3.207501 48.444496 11.730999 3.111182 -3.521130 5.327474 16.951027 12.287436 51.908230 -20.277897 -40.878120 113.021828 10.020748 -51.520481 -31.137112 2.488872 -5.048985 -2.138962 15.383390 8.350972 0.469704 0.155763 11.386449 14.904544 -1.312738 -10.256605 -10.380538 -21.307259 -9.004188 33.174255 -1.051358 -7.427512 -11.418754 -1.484486 14.896312 
14.227838 45.727753 -12.129495 -5.728031 -6.296782 -85.923004 0.000000 0.000000 0.000000 14.236393 5.481724 -1.746183 15.963423 0.325136 30.035343 -7.913644 -1.160982 28.586367 -11.795861 1.371424 14.217891 76.549507 -97.887581 -79.635162 -79.861496 3.586737 50.034344 13.151302 2.625185 -3.564597 5.644347 17.033056 12.260545 51.998604 -19.747662 -42.992954 114.104568 10.723444 -49.253746 -28.225849 4.187027 -5.296711 -1.631137 15.316295 8.579854 0.859112 0.082594 11.772779 14.252882 -1.331844 -10.817796 -10.106796 -21.550213 -9.002990 32.309055 -1.064983 -6.592368 -10.904364 -1.435550 14.933189 
14.168191 45.749775 -11.871265 -5.710892 -6.520492 -86.645157 0.000000 0.000000 0.000000 14.384206 5.506535 -1.363621 15.996472 0.398637 30.453901 -7.844290 -0.983438 28.551998 -11.600014 1.732923 14.361585 76.628769 -96.786392 -80.427658 -79.813461 3.808396 52.068649 14.549790 2.589541 -3.578224 5.826096 17.480022 12.353932 51.541271 -18.975830 -44.993546 115.078674 11.394023 -47.243237 -26.417276 5.244183 -5.398494 -1.084375 15.155579 8.617600 1.169411 0.167203 12.219792 13.681124 -1.375975 -11.423777 -9.823261 -21.861544 -9.062125 31.677574 -1.103582 -5.999540 -10.455959 -1.379079 15.018995 
14.112820 45.782745 -11.656326 -5.554942 -6.638879 -87.178993 0.000000 0.000000 0.000000 14.484659 5.598678 -1.241101 15.921376 0.350914 30.837109 -7.823162 -0.590124 28.582172 -11.256450 1.888112 14.452267 78.996658 -95.882637 -83.607361 -79.743301 3.815889 51.967541 14.100627 1.920353 -3.651978 5.950320 17.789019 12.408294 51.077072 -17.699408 -45.992249 115.551666 11.733696 -45.698418 -25.016766 6.512091 -5.549083 -0.762423 14.976893 8.420386 1.431167 0.498821 12.561275 13.202198 -1.387985 -12.069252 -9.491589 -21.970383 -9.152530 30.977961 -1.040749 -5.313581 -10.108092 -1.341231 15.034069 
14.035047 45.828175 -11.494365 -5.300182 -6.719460 -87.386742 0.000000 0.000000 0.000000 14.488052 5.731049 -1.216820 15.952102 0.495692 30.887901 -7.901290 -0.589886 28.631805 -11.323050 2.188184 14.492533 81.738022 -95.574837 -87.782768 -79.193367 3.657578 51.590038 14.125161 0.776543 -3.774319 5.927812 17.829403 12.404876 50.973610 -16.609568 -46.605011 115.888092 11.960155 -45.219585 -23.437555 6.548739 -5.411794 -0.644814 14.843394 7.984543 1.676024 1.006041 12.445579 12.732798 -1.374529 -12.489725 -8.993649 -21.813871 -9.149715 30.176113 -1.045553 -5.311093 -9.734456 -1.308596 15.207601 
